<svg xmlns="http://www.w3.org/2000/svg" 
version="1.1"
xmlns:xlink="http://www.w3.org/1999/xlink" 
xmlns:svgjs="http://svgjs.dev/svgjs" 
width="60" height="60" 
viewBox="0 0 1000 1000">
<rect width="1000" height="1000" fill="#010536">
</rect>
<g transform="matrix(0.7,0,0,0.7,149.57575757575756,339.98399108201454)">
<svg viewBox="0 0 396 181" data-background-color="#010536" preserveAspectRatio="xMidYMid meet" 
height="457" width="1000" xmlns="http://www.w3.org/2000/svg" 
xmlns:xlink="http://www.w3.org/1999/xlink">
<g id="tight-bounds" transform="matrix(1,0,0,1,0.2400000000000091,0.037347965474737066)">
<svg viewBox="0 0 395.52 180.92530406905053" 
height="180.92530406905053" width="395.52">
<g>
<svg viewBox="0 0 395.52 180.92530406905053" 
height="180.92530406905053" width="395.52">
<g>
<svg viewBox="0 0 395.52 180.92530406905053" 
height="180.92530406905053" width="395.52">
<g id="textblocktransform">
<svg viewBox="0 0 395.52 180.92530406905053" 
height="180.92530406905053" width="395.52" 
id="textblock">
<g>
<svg viewBox="0 0 395.52 180.92530406905053" 
height="180.92530406905053" width="395.52">
<rect width="395.52" height="180.92530406905053" 
x="0" y="0" opacity="1" 
fill="#fbfbf8" data-fill-palette-color="tertiary">
</rect>
<g transform="matrix(1,0,0,1,23.607599999999998,23.607599999999998)">
<svg width="348.3048" viewBox="11.949999809265137 -41.5 121.63999938964844 46.70000076293945" 
height="133.71010406905054" data-palette-color="#010536">
<path d="M20.95 3.2L20.95 3.2Q19.8 3.8 18.5 3.8L18.5 3.8Q16.9 3.6 15.43 3 13.95 2.4 13.25 1.55L13.25 1.55Q12.85-0.9 12.6-2.95 12.35-5 12.2-6.83 12.05-8.65 12-10.33 11.95-12 11.95-13.7L11.95-13.7Q11.95-15.95 12-18.45 12.05-20.95 12.13-23.78 12.2-26.6 12.25-29.83 12.3-33.05 12.3-36.85L12.3-36.85Q12.95-36.85 14.25-36.48 15.55-36.1 16.82-35.6 18.1-35.1 19.1-34.58 20.1-34.05 20.2-33.7L20.2-33.7Q19.7-32.3 19.33-30.05 18.95-27.8 18.73-25.05 18.5-22.3 18.4-19.25 18.3-16.2 18.3-13.2L18.3-13.2Q18.3-10.95 18.35-9.18 18.4-7.4 18.48-5.98 18.55-4.55 18.7-3.33 18.85-2.1 19.05-0.9L19.05-0.9Q20.45-5.15 22.13-9.4 23.8-13.65 25.58-17.57 27.35-21.5 29.1-24.9 30.85-28.3 32.43-30.83 34-33.35 35.25-34.83 36.5-36.3 37.3-36.4L37.3-36.4Q37.85-36.3 38.48-35.98 39.1-35.65 39.65-35.2 40.2-34.75 40.65-34.2 41.1-33.65 41.35-33.1L41.35-33.1Q39.5-32.45 37.38-30.05 35.25-27.65 33.1-24.28 30.95-20.9 28.93-16.93 26.9-12.95 25.28-9.15 23.65-5.35 22.5-2.05 21.35 1.25 20.95 3.2ZM34.5-3.35L34.5-3.35Q34.5-3.8 34.57-4.48 34.65-5.15 34.85-6.28 35.05-7.4 35.37-9 35.7-10.6 36.2-12.85L36.2-12.85Q36.3-13.35 36.65-14.45 37-15.55 37.57-16.78 38.15-18 38.97-19.15 39.8-20.3 40.95-20.85L40.95-20.85Q41.8-20.65 43.2-19.83 44.6-19 45.6-17.55L45.6-17.55Q44.45-16.25 43.67-14.95 42.9-13.65 42.27-12.25 41.65-10.85 41.12-9.35 40.6-7.85 39.95-6.2L39.95-6.2Q39.4-4.8 38.95-3.33 38.5-1.85 38.45-0.75L38.45-0.75Q38.45 0.15 38.42 0.53 38.4 0.9 38.15 0.9L38.15 0.9Q37.95 0.9 37.35 0.65 36.75 0.4 36.12-0.13 35.5-0.65 35-1.45 34.5-2.25 34.5-3.35ZM44.05-25.05L44.05-25.05Q44.05-25.35 44.2-25.95L44.2-25.95Q43.95-26.2 43.77-26.7 43.6-27.2 43.6-27.6L43.6-27.6Q43.6-28.05 43.72-28.83 43.85-29.6 44.05-30.5 44.25-31.4 44.55-32.38 44.85-33.35 45.15-34.15L45.15-34.15Q45.75-34.15 46.62-33.83 47.5-33.5 48.4-32.98 49.3-32.45 50.05-31.83 50.8-31.2 51.2-30.65L51.2-30.65Q50.65-30.1 49.75-29.13 48.85-28.15 48-27.08 47.15-26 46.45-25.05 45.75-24.1 45.55-23.7L45.55-23.7Q44.95-23.8 44.5-24.23 44.05-24.65 44.05-25.05ZM63.5-19.9L63.5-19.9Q63.45-18.95 63.17-17.93 62.9-16.9 62.5-16.07 62.1-15.25 61.65-14.7 61.2-14.15 60.8-14.15L60.8-14.15Q60.25-14.2 60.15-14.9L60.15-14.9Q60.15-15.05 60.27-15.38 60.4-15.7 60.55-16.1 60.7-16.5 60.82-16.9 60.95-17.3 60.95-17.6L60.95-17.6Q60.95-18.3 60.62-18.78 60.3-19.25 59.75-19.25L59.75-19.25Q57.75-19.25 56.7-16.75 55.65-14.25 55.65-9.4L55.65-9.4Q55.65-8.9 55.7-8.8L55.7-8.8Q56.75-8.85 57.57-8.88 58.4-8.9 59.2-8.9L59.2-8.9Q59.25-8.8 59.25-8.5L59.25-8.5Q59.25-8.05 59.05-7.85L59.05-7.85Q57.9-7.6 57.22-7.43 56.55-7.25 56.2-7.1 55.85-6.95 55.77-6.78 55.7-6.6 55.7-6.3L55.7-6.3Q55.7-5.9 55.72-5.5 55.75-5.1 55.75-4.5L55.75-4.5Q55.75-0.3 53.47 2.25 51.2 4.8 47.15 5.2L47.15 5.2Q46.45 5.15 45.7 4.8 44.95 4.45 44.27 3.9 43.6 3.35 43.1 2.68 42.6 2 42.4 1.3L42.4 1.3Q42.4-0.6 43.2-2.33 44-4.05 45.37-5.38 46.75-6.7 48.62-7.53 50.5-8.35 52.7-8.5L52.7-8.5Q52.7-9.75 52.45-10.95 52.2-12.15 51.92-13.28 51.65-14.4 51.4-15.48 51.15-16.55 51.15-17.6L51.15-17.6Q51.15-18.95 51.7-20.28 52.25-21.6 53.15-22.73 54.05-23.85 55.25-24.65 56.45-25.45 57.75-25.75L57.75-25.75Q58.3-25.6 59.22-24.88 60.15-24.15 61.05-23.25 61.95-22.35 62.65-21.43 63.35-20.5 63.5-19.9ZM47 2.9L47 2.9Q48.2 2.4 49.27 1.45 50.35 0.5 51.15-0.7 51.95-1.9 52.42-3.25 52.9-4.6 52.9-5.9L52.9-5.9Q51.9-5.75 50.7-4.98 49.5-4.2 48.45-3.13 47.4-2.05 46.7-0.9 46 0.25 46 1.1L46 1.1Q46 2.2 47 2.9ZM63.49-0.85L63.49-0.85Q63.49-2.6 63.84-4.98 64.19-7.35 64.87-10.05 65.54-12.75 66.47-15.7 67.39-18.65 68.54-21.6L68.54-21.6Q69.54-24.25 70.87-26.95 72.19-29.65 73.74-32.25 75.29-34.85 76.97-37.2 78.64-39.55 80.34-41.5L80.34-41.5Q81.14-41.5 82.07-41.3 82.99-41.1 83.87-40.78 84.74-40.45 85.47-40 86.19-39.55 86.64-39.1L86.64-39.1Q82.89-35.25 79.89-31.33 76.89-27.4 75.14-23.95L75.14-23.95Q74.19-22.05 73.42-20.4 72.64-18.75 71.99-17.13 71.34-15.5 70.82-13.88 70.29-12.25 69.84-10.45L69.84-10.45Q79.44-22.7 84.09-22.7L84.09-22.7Q85.39-22.7 86.89-21.85 88.39-21 89.54-19.55L89.54-19.55Q87.99-17.85 86.34-15.45 84.69-13.05 83.32-10.63 81.94-8.2 81.07-6.13 80.19-4.05 80.19-3.05L80.19-3.05Q80.19-2.55 80.34-2.38 80.49-2.2 80.99-2.2L80.99-2.2Q81.74-2.2 82.19-2.4 82.64-2.6 82.74-2.6L82.74-2.6Q82.99-2.2 83.04-2.05 83.09-1.9 83.09-1.8L83.09-1.8Q83.09-1.6 82.49-1.23 81.89-0.85 81.07-0.48 80.24-0.1 79.44 0.2 78.64 0.5 78.24 0.5L78.24 0.5Q77.74 0.5 77.24 0.23 76.74-0.05 76.37-0.5 75.99-0.95 75.77-1.5 75.54-2.05 75.54-2.65L75.54-2.65Q75.54-3.4 75.97-4.88 76.39-6.35 77.14-8.33 77.89-10.3 78.94-12.65 79.99-15 81.19-17.45L81.19-17.45Q81.19-17.65 80.99-17.65L80.99-17.65Q80.84-17.65 80.22-17.25 79.59-16.85 79.04-16.45L79.04-16.45Q77.24-15.1 75.42-13.13 73.59-11.15 71.87-8.8 70.14-6.45 68.62-3.83 67.09-1.2 65.99 1.45L65.99 1.45Q65.84 1.8 65.54 2.1 65.24 2.4 65.04 2.4L65.04 2.4Q64.89 2.4 64.62 2.05 64.34 1.7 64.12 1.18 63.89 0.65 63.69 0.1 63.49-0.45 63.49-0.85ZM106.64-20.2L106.64-20.2Q107.14-20.2 107.82-20.03 108.49-19.85 109.04-19.58 109.59-19.3 109.97-19 110.34-18.7 110.34-18.45L110.34-18.45Q109.34-16.35 108.49-14.23 107.64-12.1 107.04-10.15 106.44-8.2 106.12-6.5 105.79-4.8 105.79-3.55L105.79-3.55Q105.79-2.15 106.09-1.23 106.39-0.3 107.09 0.1L107.09 0.1Q106.49 0.5 105.54 0.75 104.59 1 103.84 1L103.84 1Q101.14 1 101.14-2.7L101.14-2.7Q101.14-5.55 103.04-10.5L103.04-10.5Q102.04-8.2 100.74-6.18 99.44-4.15 98.09-2.6 96.74-1.05 95.37-0.08 93.99 0.9 92.84 1.1L92.84 1.1Q90.99 1 89.84-0.68 88.69-2.35 88.69-4.95L88.69-4.95Q88.69-7.75 89.89-10.85 91.09-13.95 92.97-16.6 94.84-19.25 97.04-21.03 99.24-22.8 101.29-22.9L101.29-22.9Q101.79-22.75 102.42-22.3 103.04-21.85 103.62-21.25 104.19-20.65 104.59-20.03 104.99-19.4 105.04-18.95L105.04-18.95Q103.04-18.65 100.92-17 98.79-15.35 97.07-13.03 95.34-10.7 94.24-8.05 93.14-5.4 93.14-3.1L93.14-3.1Q93.14-2.15 93.84-1.9L93.84-1.9Q95.29-2.2 97.19-4.38 99.09-6.55 101.79-11.1L101.79-11.1Q102.29-12 102.92-13.1 103.54-14.2 104.19-15.4 104.84-16.6 105.47-17.82 106.09-19.05 106.64-20.2ZM112.84-3.2L112.84-3.2Q112.84-5.4 113.89-9.38 114.94-13.35 116.84-18.65L116.84-18.65Q119.94-27.1 122.66-32.73 125.39-38.35 127.99-41.5L127.99-41.5Q128.59-41.4 129.46-41 130.34-40.6 131.19-40.13 132.04-39.65 132.71-39.15 133.39-38.65 133.59-38.35L133.59-38.35Q129.69-33.75 126.74-28.45 123.79-23.15 121.34-16.3L121.34-16.3Q119.24-10.4 118.14-5.68 117.04-0.95 117.04 2.2L117.04 2.2Q117.04 3.05 117.04 3.25 117.04 3.45 117.09 3.65L117.09 3.65Q116.39 3.55 115.89 3.3 115.39 3.05 115.24 2.7L115.24 2.7Q115.14 2.45 114.69 1.98 114.24 1.5 113.89 1.25L113.89 1.25Q113.44 0.95 113.14-0.33 112.84-1.6 112.84-3.2Z"
 opacity="1" transform="matrix(1,0,0,1,0,0)" fill="#010536" class="undefined-text-0" data-fill-palette-color="quaternary" id="text-0"></path></svg></g></svg></g></svg></g></svg></g><g></g></svg></g><defs></defs></svg><rect width="25" height="25" fill="none" stroke="none" visibility="hidden">
 </rect>
 </g>
 </svg>
 </g>
 </svg>